<svg width="40" height="40" viewBox="0 0 40 40" fill="none" xmlns="http://www.w3.org/2000/svg">
<path d="M20.0038 15.9739C17.571 15.9739 15.6086 18.0668 15.6086 20.6615C15.6086 23.2563 17.571 25.3492 20.0038 25.3492C22.4367 25.3492 24.399 23.2563 24.399 20.6615C24.399 18.0668 22.4367 15.9739 20.0038 15.9739ZM20.0038 23.7091C18.4316 23.7091 17.1464 22.3424 17.1464 20.6615C17.1464 18.9807 18.4278 17.614 20.0038 17.614C21.5798 17.614 22.8613 18.9807 22.8613 20.6615C22.8613 22.3424 21.576 23.7091 20.0038 23.7091ZM25.6039 15.7821C25.6039 16.39 25.1449 16.8755 24.5788 16.8755C24.0088 16.8755 23.5536 16.3859 23.5536 15.7821C23.5536 15.1783 24.0126 14.6887 24.5788 14.6887C25.1449 14.6887 25.6039 15.1783 25.6039 15.7821ZM28.5149 16.8918C28.4499 15.4272 28.1362 14.1298 27.1302 13.0609C26.128 11.992 24.9116 11.6575 23.5383 11.584C22.123 11.4984 17.8808 11.4984 16.4655 11.584C15.096 11.6534 13.8796 11.9879 12.8736 13.0568C11.8675 14.1257 11.5577 15.4231 11.4888 16.8877C11.4085 18.3973 11.4085 22.9217 11.4888 24.4313C11.5539 25.8959 11.8675 27.1933 12.8736 28.2622C13.8796 29.3311 15.0922 29.6656 16.4655 29.7391C17.8808 29.8247 22.123 29.8247 23.5383 29.7391C24.9116 29.6697 26.128 29.3352 27.1302 28.2622C28.1324 27.1933 28.4461 25.8959 28.5149 24.4313C28.5953 22.9217 28.5953 18.4013 28.5149 16.8918ZM26.6865 26.0509C26.3881 26.8506 25.8105 27.4666 25.0569 27.7889C23.9285 28.2663 21.2508 28.1561 20.0038 28.1561C18.7568 28.1561 16.0753 28.2622 14.9507 27.7889C14.2009 27.4707 13.6233 26.8547 13.3211 26.0509C12.8736 24.8474 12.9769 21.9916 12.9769 20.6615C12.9769 19.3315 12.8774 16.4716 13.3211 15.2722C13.6195 14.4725 14.1971 13.8565 14.9507 13.5342C16.0791 13.0568 18.7568 13.167 20.0038 13.167C21.2508 13.167 23.9323 13.0609 25.0569 13.5342C25.8067 13.8524 26.3843 14.4684 26.6865 15.2722C27.134 16.4757 27.0308 19.3315 27.0308 20.6615C27.0308 21.9916 27.134 24.8515 26.6865 26.0509Z" fill="white"/>
<circle cx="20" cy="20" r="19.5" stroke="white"/>
</svg>