<svg width="100" height="100" viewBox="0 0 100 100" fill="none" xmlns="http://www.w3.org/2000/svg">
<circle cx="50" cy="50" r="50" fill="white"/>
<path d="M69.9999 48.8889C70.0076 51.822 69.3223 54.7153 67.9999 57.3334C66.432 60.4706 64.0216 63.1093 61.0387 64.954C58.0558 66.7986 54.6183 67.7764 51.1111 67.7778C48.178 67.7854 45.2847 67.1002 42.6666 65.7778L30 70L34.2222 57.3334C32.8998 54.7153 32.2146 51.822 32.2222 48.8889C32.2236 45.3817 33.2014 41.9442 35.046 38.9613C36.8907 35.9784 39.5294 33.568 42.6666 32.0001C45.2847 30.6777 48.178 29.9924 51.1111 30.0001H52.2222C56.8541 30.2556 61.2289 32.2106 64.5091 35.4909C67.7894 38.7711 69.7444 43.1459 69.9999 47.7778V48.8889Z" stroke="#FF3333" stroke-width="5" stroke-linecap="round" stroke-linejoin="round"/>
</svg>