<svg width="163" height="33" viewBox="0 0 163 33" fill="none" xmlns="http://www.w3.org/2000/svg">
<path d="M99.2556 20.1914C99.2556 23.4914 99.2556 26.7914 99.2556 30.0914C99.2556 30.3234 99.2556 30.5574 99.2336 30.7894C99.2343 30.9844 99.1598 31.1721 99.0254 31.3137C98.8911 31.4552 98.7072 31.5396 98.5121 31.5494C98.4965 31.5547 98.4804 31.5581 98.464 31.5594C96.1092 31.5594 93.7543 31.5774 91.4015 31.5474C90.8323 31.5474 90.662 31.2474 90.662 30.5814C90.662 24.4814 90.678 18.3814 90.646 12.2834C90.6474 11.368 90.5192 10.457 90.2652 9.5774C89.708 7.73941 88.1889 6.67341 86.257 6.5774C85.3547 6.50547 84.4481 6.64236 83.6075 6.97741C82.2207 7.5774 81.5453 8.72941 81.2767 10.1374C81.1541 10.8252 81.0944 11.5228 81.0984 12.2214C81.0864 18.2881 81.0864 24.3547 81.0984 30.4214C81.0984 31.3354 80.8619 31.5814 79.952 31.5854C77.8985 31.5854 75.8443 31.5854 73.7894 31.5854C72.8074 31.5854 72.5749 31.3494 72.5749 30.3854C72.5749 24.1854 72.5869 17.9854 72.5569 11.7854C72.5466 10.9538 72.4163 10.128 72.1701 9.3334C71.669 7.68741 70.2 6.6634 68.4304 6.58341C67.4865 6.5414 66.5566 6.61341 65.6828 6.99541C64.1416 7.67141 63.4341 8.96141 63.1676 10.5374C63.0911 11.031 63.0556 11.53 63.0614 12.0294C63.0614 18.0454 63.0614 24.0621 63.0614 30.0794C63.0614 30.2794 63.0614 30.4794 63.0614 30.6794C63.0253 31.2674 62.7888 31.5094 62.1956 31.5734C62.0623 31.5844 61.9285 31.5884 61.7948 31.5854C59.7746 31.5854 57.7538 31.5854 55.7324 31.5854C54.6782 31.5854 54.4417 31.3734 54.4397 30.3434C54.4397 23.6447 54.4397 16.9454 54.4397 10.2454C54.4397 7.9234 54.9968 5.79341 56.5821 4.0194C57.985 2.44341 59.7766 1.46141 61.7747 0.867405C64.5813 0.0282372 67.5345 -0.205604 70.4385 0.181405C72.1302 0.412487 73.7624 0.962236 75.2484 1.80141C76.3446 2.40141 77.3787 2.40141 78.473 1.80141C81.4311 0.187406 84.6016 -0.198594 87.9244 0.119406C90.173 0.341406 92.3455 0.787405 94.3375 1.86541C97.2956 3.46541 99.1233 5.86541 99.2015 9.29941C99.2837 12.9294 99.2195 16.5634 99.2195 20.1954L99.2556 20.1914Z" fill="white"/>
<path d="M50.77 16.4835C50.77 19.0488 50.77 21.6148 50.77 24.1815C50.7687 24.4146 50.7794 24.6475 50.802 24.8795C50.8842 25.6475 50.7239 25.8515 49.9683 25.9035C47.7652 26.0221 45.6667 26.879 44.0121 28.3355C42.6251 29.5699 40.9931 30.4987 39.2223 31.0615C35.3503 32.2855 31.4844 32.4495 27.6886 30.7835C25.3759 29.7695 23.5141 28.2035 22.6783 25.7555C21.2474 21.5355 22.5421 16.6675 27.5183 14.6055C29.7228 13.6935 32.0315 13.3455 34.3703 13.0495C36.3865 12.7955 38.3926 12.4635 40.4027 12.1595C40.5493 12.1266 40.6928 12.0811 40.8316 12.0235C41.7194 11.7335 42.4349 11.2775 42.5772 10.2515C42.7355 9.06349 42.4248 8.07549 41.3627 7.40549C40.5029 6.86149 39.5269 6.69749 38.5469 6.61949C36.8855 6.48949 35.2401 6.55749 33.737 7.38749C33.2617 7.63504 32.8505 7.98933 32.5358 8.42246C32.2211 8.85559 32.0114 9.35573 31.9233 9.88349C31.8932 10.0295 31.8592 10.1755 31.8311 10.3235C31.7069 10.9635 31.4744 11.1695 30.815 11.1695C28.7789 11.1695 26.7427 11.1695 24.7045 11.1695C24.5221 11.1695 24.3377 11.1695 24.1534 11.1695C23.4599 11.1455 23.1774 10.7975 23.2335 10.1035C23.5822 5.72949 25.9611 2.90349 29.9693 1.33949C31.8288 0.641592 33.7823 0.224336 35.7652 0.101486C39.2644 -0.174514 42.6673 0.165486 45.8699 1.70149C47.8861 2.66949 49.5074 4.08149 50.2589 6.25349C50.5546 7.10041 50.7202 7.98712 50.7499 8.88349C50.8121 11.4175 50.77 13.9515 50.77 16.4835ZM42.2665 17.3515C42.1925 17.338 42.1173 17.3313 42.0421 17.3315C40.1722 17.6495 38.2964 17.9415 36.4306 18.2975C35.2696 18.5088 34.122 18.7873 32.9935 19.1315C32.5404 19.2584 32.121 19.4838 31.7655 19.7915C31.41 20.0993 31.1271 20.4817 30.9373 20.9115C30.2799 22.4355 31.0174 24.2275 32.6969 24.8815C34.9014 25.7435 37.148 25.6075 39.3245 24.7075C40.4748 24.2295 41.4468 23.4955 41.9298 22.2835C42.5591 20.6735 42.1102 19.0055 42.2665 17.3515Z" fill="white"/>
<path d="M130.077 16.7835V25.1295C130.077 25.6655 129.914 25.8675 129.379 25.8955C126.916 26.0315 124.802 26.9635 122.966 28.5935C121.227 30.1355 119.144 30.9935 116.902 31.5055C114.935 31.9813 112.899 32.1046 110.889 31.8695C108.454 31.5555 106.212 30.7615 104.336 29.1415C102.025 27.1415 101.159 24.5815 101.482 21.5755C101.897 17.7095 104.228 15.4795 107.731 14.2435C109.631 13.5735 111.615 13.3155 113.601 13.0435C115.633 12.7755 117.665 12.4875 119.685 12.1415C120.97 11.9215 121.738 11.1875 121.874 10.2395C122.084 8.77945 121.451 7.59745 120.07 7.10745C117.952 6.3206 115.62 6.32842 113.507 7.12945C112.104 7.66145 111.326 8.77145 111.102 10.2595C110.998 10.9655 110.773 11.1595 110.042 11.1615C107.871 11.1615 105.7 11.1615 103.53 11.1615C102.711 11.1615 102.444 10.8335 102.516 9.99945C102.885 5.71145 105.23 2.92945 109.146 1.36145C111.032 0.60545 113.014 0.25345 115.036 0.0894495C118.256 -0.172551 121.399 0.131449 124.411 1.35345C125.738 1.86872 126.939 2.66188 127.932 3.67945C129.425 5.24545 130.061 7.13745 130.053 9.27945C130.053 11.7775 130.053 14.2795 130.053 16.7755L130.077 16.7835ZM121.507 17.2975C120.798 17.4715 120.158 17.6735 119.503 17.7755C117.938 18.0195 116.365 18.2055 114.797 18.4355C113.671 18.6015 112.571 18.8635 111.575 19.4515C110.493 20.0915 109.893 20.9915 110.012 22.2875C110.13 23.5835 110.803 24.4695 111.98 24.8875C114.603 25.8155 117.162 25.6275 119.573 24.1755C120.663 23.5175 121.367 22.5195 121.479 21.2655C121.591 19.9615 121.507 18.6395 121.507 17.2975Z" fill="white"/>
<path d="M20.2034 10.2056C20.2034 13.2056 20.2636 16.2056 20.1834 19.2056C20.1503 21.3117 19.6801 23.388 18.8026 25.3036C17.4758 28.1296 15.2212 29.8836 12.2712 30.7856C10.6735 31.2746 9.01218 31.5253 7.34106 31.5296C5.25478 31.5296 3.1705 31.5736 1.08422 31.5896C0.116239 31.5896 0 31.4696 0 30.4976C0 28.5816 0 26.6656 0 24.7496C0 23.9196 0.150309 23.7716 1.00206 23.7716C3.10437 23.7716 5.21069 23.7876 7.313 23.7716C8.74794 23.7556 10.0687 23.3616 10.7941 22.0156C11.1711 21.2767 11.423 20.4806 11.5397 19.6596C11.6721 18.6861 11.7284 17.7038 11.708 16.7216C11.722 11.6076 11.708 6.49161 11.708 1.37761C11.708 0.439613 11.9425 0.205613 12.8924 0.203613C14.9447 0.203613 16.9982 0.203613 19.0531 0.203613C20.0251 0.203613 20.2556 0.431613 20.2556 1.42161V10.2056H20.2034Z" fill="white"/>
<path d="M133.638 21.5235C133.638 18.4935 133.568 15.4595 133.662 12.4295C133.73 10.1915 134.199 8.00351 135.265 5.99151C136.726 3.24351 139.073 1.65951 142.025 0.853509C143.739 0.414603 145.502 0.192859 147.272 0.193509C149.142 0.163509 151.012 0.193509 152.883 0.193509C153.669 0.193509 153.825 0.353509 153.827 1.12551C153.827 3.14151 153.827 5.15751 153.827 7.17351C153.827 7.85351 153.719 7.96151 153.046 7.97351C150.841 7.99151 148.637 7.97351 146.432 8.03351C145.043 8.06751 143.751 8.45151 143.039 9.76751C142.685 10.4448 142.439 11.1728 142.308 11.9255C142.164 12.7966 142.097 13.6787 142.107 14.5615C142.091 19.8435 142.107 25.1235 142.107 30.4055C142.107 31.3495 141.877 31.5895 140.931 31.5935C138.861 31.5935 136.79 31.5935 134.718 31.5935C133.8 31.5935 133.568 31.3495 133.568 30.4335C133.568 27.4668 133.568 24.5008 133.568 21.5355L133.638 21.5235Z" fill="white"/>
<path d="M162.113 4.10361C162.113 6.07161 160.613 7.55161 158.619 7.55561C156.585 7.55561 155.024 6.07361 155.012 4.12761C155.012 2.14361 156.551 0.655606 158.619 0.663606C160.648 0.671606 162.115 2.11561 162.113 4.10361ZM161.04 4.12161C161.04 2.64761 159.994 1.55161 158.571 1.55161C158.246 1.54934 157.923 1.61252 157.622 1.73738C157.321 1.86225 157.049 2.04624 156.821 2.27841C156.593 2.51057 156.414 2.78615 156.295 3.08872C156.176 3.3913 156.119 3.71468 156.128 4.03961C156.128 5.53561 157.154 6.66761 158.533 6.68361C159.912 6.69961 161.034 5.57361 161.04 4.12161Z" fill="white"/>
<path d="M159.315 4.46329C159.549 4.88529 159.786 5.31129 160.042 5.76929C159.585 5.93729 159.252 5.94529 159.04 5.49529C158.915 5.24211 158.771 4.99816 158.611 4.76529C158.517 4.65065 158.41 4.5467 158.293 4.45529L158.126 4.50729C158.126 4.79329 158.126 5.08129 158.126 5.36729C158.126 5.65329 158.11 5.86529 157.745 5.87529C157.381 5.88529 157.323 5.68929 157.323 5.40329C157.323 4.53929 157.323 3.67529 157.323 2.80329C157.323 2.48929 157.445 2.34729 157.769 2.36129C158.17 2.37729 158.571 2.36129 158.972 2.36129C159.463 2.36129 159.864 2.53729 160.02 3.03929C160.196 3.61329 160.02 4.00129 159.473 4.32729C159.416 4.36819 159.364 4.41368 159.315 4.46329ZM158.543 3.95529L159.218 3.37329C159.024 3.23338 158.812 3.11785 158.589 3.02929C158.321 2.95929 158.06 3.05529 158.134 3.40329C158.17 3.56529 158.345 3.69529 158.543 3.95529Z" fill="white"/>
</svg>