<svg width="40" height="40" viewBox="0 0 40 40" fill="none" xmlns="http://www.w3.org/2000/svg">
<circle cx="20" cy="20" r="19.5" stroke="white"/>
<path d="M31.2084 13.9107C30.9358 12.8159 30.1326 11.9537 29.1128 11.6611C27.2642 11.1294 19.8519 11.1294 19.8519 11.1294C19.8519 11.1294 12.4395 11.1294 10.591 11.6611C9.57114 11.9537 8.76793 12.8159 8.49531 13.9107C8 15.895 8 20.0352 8 20.0352C8 20.0352 8 24.1753 8.49531 26.1597C8.76793 27.2545 9.57114 28.0808 10.591 28.3734C12.4395 28.9051 19.8519 28.9051 19.8519 28.9051C19.8519 28.9051 27.2642 28.9051 29.1128 28.3734C30.1326 28.0808 30.9358 27.2545 31.2084 26.1597C31.7037 24.1753 31.7037 20.0352 31.7037 20.0352C31.7037 20.0352 31.7037 15.895 31.2084 13.9107ZM17.4276 23.7941V16.2762L23.6229 20.0353L17.4276 23.7941Z" fill="white"/>
</svg>