<svg width="100" height="100" viewBox="0 0 100 100" fill="none" xmlns="http://www.w3.org/2000/svg">
<circle cx="50" cy="50" r="50" fill="white"/>
<path d="M59.3333 69.9999V65.5555C59.3333 63.198 58.3968 60.9371 56.7298 59.2701C55.0628 57.6031 52.8019 56.6666 50.4444 56.6666H34.8889C32.5314 56.6666 30.2705 57.6031 28.6035 59.2701C26.9365 60.9371 26 63.198 26 65.5555V69.9999" stroke="#FF3333" stroke-width="5" stroke-linecap="round" stroke-linejoin="round"/>
<path d="M42.667 47.7778C47.5762 47.7778 51.5559 43.7981 51.5559 38.8889C51.5559 33.9797 47.5762 30 42.667 30C37.7578 30 33.7781 33.9797 33.7781 38.8889C33.7781 43.7981 37.7578 47.7778 42.667 47.7778Z" stroke="#FF3333" stroke-width="5" stroke-linecap="round" stroke-linejoin="round"/>
<path d="M61.5557 47.7779L66.0001 52.2223L74.889 43.3334" stroke="#FF3333" stroke-width="5" stroke-linecap="round" stroke-linejoin="round"/>
</svg>