<svg width="100" height="100" viewBox="0 0 100 100" fill="none" xmlns="http://www.w3.org/2000/svg">
<circle cx="50" cy="50" r="50" fill="white"/>
<path d="M62.1046 39.8075C60.5579 38.2608 58.5848 37.2109 56.438 36.792L65.1201 45.4741C64.7012 43.3272 63.6513 41.3542 62.1046 39.8075Z" stroke="#FF3333" stroke-width="5" stroke-linecap="round" stroke-linejoin="round"/>
<path d="M68.233 33.6643C65.0576 30.4929 60.8983 28.4955 56.438 28L65.175 36.7261L73.9121 45.4521C73.411 40.9924 71.4083 36.8356 68.233 33.6643Z" stroke="#FF3333" stroke-width="5" stroke-linecap="round" stroke-linejoin="round"/>
<path d="M71.7141 69.5862V62.9922C71.7408 61.9142 71.3705 60.864 70.6734 60.0413C69.9763 59.2186 69.0012 58.6808 67.9335 58.5302C65.8233 58.2519 63.7513 57.7358 61.7571 56.9916C60.9704 56.6959 60.1154 56.6319 59.2934 56.8072C58.4715 56.9825 57.717 57.3898 57.1194 57.9807L54.3279 60.7722C48.8251 57.6432 44.2689 53.087 41.1399 47.5842L43.9314 44.7927C44.5223 44.1951 44.9296 43.4406 45.1049 42.6186C45.2802 41.7967 45.2162 40.9417 44.9205 40.1549C44.1763 38.1608 43.6602 36.0888 43.3819 33.9786C43.2326 32.9223 42.7043 31.9564 41.8955 31.2608C41.0867 30.5652 40.0526 30.1875 38.9859 30.198H32.3919C31.7816 30.1986 31.1781 30.3262 30.6198 30.5728C30.0616 30.8194 29.5608 31.1795 29.1493 31.6303C28.7378 32.081 28.4247 32.6125 28.2299 33.1909C28.0351 33.7692 27.9629 34.3818 28.0178 34.9896C28.7393 41.7836 31.051 48.3122 34.7657 54.0463C38.1404 59.357 42.643 63.8596 47.9537 67.2343C53.6619 70.936 60.1588 73.2472 66.9224 73.9822C67.5321 74.0373 68.1466 73.9644 68.7264 73.7683C69.3063 73.5722 69.8389 73.2571 70.2899 72.8433C70.741 72.4295 71.1007 71.926 71.3459 71.3651C71.5912 70.8042 71.7166 70.1983 71.7141 69.5862Z" stroke="#FF3333" stroke-width="5" stroke-linecap="round" stroke-linejoin="round"/>
</svg>